# xmcd
#
# Track frame offsets: 
#        150
#        17142
#        28083
#        42333
#        57480
#        77378
#        84568
#        97685
#        115244
#        131666
#        146026
#        158179
#        168744
#        184316
#        200132
#        207735
#        226110
#        244826
#        263505
#        283244
#
# Disc length: 3989 seconds
#
# Revision: 0
# Processed by: cddbd v1.5.2PL0 Copyright (c) Steve Scherf et al.
# Submitted via: ExactAudioCopy v1.1
#
DISCID=220f9314
DTITLE=Various Artist - De Lage Landenlijst 2 - CD 2
DYEAR=2017
DGENRE=Chanson
TTITLE0=The Scene - Iedereen Is Van De Wereld
TTITLE1=Boudewijn De Groot - Verdronken Vlinder
TTITLE2=Stef Bos - Papa
TTITLE3=Claudia De Breij - Mag Ik Dan Bij Jou
TTITLE4=Spinvis - Voor Ik Vergeet
TTITLE5=Wannes Van De Velde - Ik Wil Deze Nacht In De Straten Verdwale
TTITLE5=n
TTITLE6=Eva De Roovere - Fantastig Toch
TTITLE7=Ann Christy - De Roos
TTITLE8=Tourist LeMC Feat. Spiritually Wally - Horizon
TTITLE9=The Amazing Stroopwafels - Oude Maasweg
TTITLE10=Doe Maar - De Bom
TTITLE11=De Mens - Irene
TTITLE12=Klein Orkest - Over De Muur
TTITLE13=De Jeugd Van Tegenwoordig - Watskeburt?!
TTITLE14=Kris De Bruyne - Lieve Jacoba
TTITLE15=Van Dik Hout - Stil In Mij
TTITLE16=Senne Guns - De Goudvis
TTITLE17=Johan Verminnen - Laat Me Nu Toch Niet Alleen
TTITLE18=Bram Vermeulen - De Steen (Live)
TTITLE19=Arbeid Adelt! - Lekker Westers
EXTD=
EXTT0=
EXTT1=
EXTT2=
EXTT3=
EXTT4=
EXTT5=
EXTT6=
EXTT7=
EXTT8=
EXTT9=
EXTT10=
EXTT11=
EXTT12=
EXTT13=
EXTT14=
EXTT15=
EXTT16=
EXTT17=
EXTT18=
EXTT19=
PLAYORDER=
